<svg width="69" height="63" viewBox="0 0 69 63" fill="none" xmlns="http://www.w3.org/2000/svg">
<path fill-rule="evenodd" clip-rule="evenodd" d="M13 29.0004V32.0004V60H29L29 47C29 45.3431 30.3431 44 32 44H38C39.6569 44 41 45.3431 41 47L41 60H56V32.0004V29.0004H59H65.5127L34.5 3.94568L3.48721 29.0004L9.99997 29.0004H13ZM38.0194 63C38.0129 63 38.0064 63 38 63H56C57.6568 63 59 61.6569 59 60V35.0004V32.0004H62H65.5127C68.3414 32.0004 69.5983 28.4444 67.398 26.6668L36.3853 1.61207C35.2854 0.723548 33.7145 0.723547 32.6147 1.61207L1.60193 26.6668C-0.598388 28.4444 0.658558 32.0004 3.4872 32.0004H6.99997H9.99997V35.0004V60C9.99997 61.6569 11.3431 63 13 63H32L32 60V47H38V60V63C38.0065 63 38.0129 63 38.0194 63Z" fill="white"/>
</svg>
