<svg width="161" height="247" viewBox="0 0 161 247" fill="none" xmlns="http://www.w3.org/2000/svg">
<path d="M30.24 237.2C28.08 237.2 26.12 236.8 24.36 236C22.6 235.2 21.08 234.12 19.8 232.76C18.5467 231.373 17.5733 229.827 16.88 228.12C16.2133 226.387 15.88 224.6 15.88 222.76C15.88 220.867 16.24 219.067 16.96 217.36C17.68 215.627 18.68 214.093 19.96 212.76C21.2667 211.427 22.8 210.373 24.56 209.6C26.3467 208.8 28.2933 208.4 30.4 208.4C32.56 208.4 34.52 208.813 36.28 209.64C38.04 210.467 39.5467 211.573 40.8 212.96C42.0533 214.347 43.0133 215.907 43.68 217.64C44.3733 219.347 44.72 221.107 44.72 222.92C44.72 224.787 44.36 226.573 43.64 228.28C42.9467 229.987 41.9467 231.52 40.64 232.88C39.36 234.213 37.84 235.267 36.08 236.04C34.32 236.813 32.3733 237.2 30.24 237.2ZM30.32 230.28C31.44 230.28 32.4133 230.067 33.24 229.64C34.0667 229.213 34.7333 228.64 35.24 227.92C35.7733 227.2 36.16 226.4 36.4 225.52C36.6667 224.613 36.8 223.693 36.8 222.76C36.8 221.8 36.6667 220.88 36.4 220C36.1333 219.093 35.7333 218.293 35.2 217.6C34.6667 216.907 33.9867 216.36 33.16 215.96C32.3333 215.533 31.3733 215.32 30.28 215.32C29.16 215.32 28.1867 215.533 27.36 215.96C26.56 216.387 25.8933 216.96 25.36 217.68C24.8267 218.4 24.4267 219.213 24.16 220.12C23.92 221 23.8 221.907 23.8 222.84C23.8 223.8 23.9333 224.72 24.2 225.6C24.4667 226.48 24.8667 227.28 25.4 228C25.9333 228.693 26.6 229.253 27.4 229.68C28.2267 230.08 29.2 230.28 30.32 230.28ZM27.12 225H34.4L45.44 237H38.16L27.12 225ZM47.3059 229.8V215.96H54.9059V228.08C54.9059 228.987 55.1059 229.707 55.5059 230.24C55.9326 230.747 56.5059 231 57.2259 231C57.6259 231 58.0259 230.947 58.4259 230.84C58.8259 230.733 59.2259 230.52 59.6259 230.2C60.0526 229.88 60.4659 229.427 60.8659 228.84V215.96H68.4659V228.6C68.4659 229.32 68.5726 229.827 68.7859 230.12C68.9993 230.387 69.3726 230.547 69.9059 230.6V237C69.2393 237.133 68.6393 237.227 68.1059 237.28C67.5726 237.36 67.1059 237.4 66.7059 237.4C65.4259 237.4 64.4126 237.16 63.6659 236.68C62.9193 236.2 62.4393 235.467 62.2259 234.48L62.0659 233.72C61.0793 235.027 59.8926 235.973 58.5059 236.56C57.1459 237.12 55.5993 237.4 53.8659 237.4C51.7593 237.4 50.1326 236.747 48.9859 235.44C47.8659 234.133 47.3059 232.253 47.3059 229.8ZM73.0138 237V215.96H80.6138V237H73.0138ZM73.0138 214.2V207.8H80.6138V214.2H73.0138ZM83.4191 232.52L93.0191 221.16H84.0191V215.96H100.939V220.44L91.3791 231.8H101.299V237H83.4191V232.52ZM103.185 232.52L112.785 221.16H103.785V215.96H120.705V220.44L111.145 231.8H121.065V237H103.185V232.52ZM123.83 239.12C124.444 239.333 125.004 239.493 125.51 239.6C126.044 239.733 126.524 239.8 126.95 239.8C127.51 239.8 127.977 239.693 128.35 239.48C128.724 239.293 129.017 238.987 129.23 238.56C129.444 238.133 129.577 237.613 129.63 237L121.99 215.96H129.79L133.79 229.2L137.03 215.96H144.11L136.99 239.52C136.59 240.88 135.937 242.067 135.03 243.08C134.124 244.12 133.044 244.92 131.79 245.48C130.537 246.067 129.19 246.36 127.75 246.36C127.084 246.36 126.417 246.293 125.75 246.16C125.11 246.053 124.47 245.867 123.83 245.6V239.12Z" fill="url(#paint0_linear_0_1)"/>
<path d="M32.022 16.1872C32.9569 8.7902 39.7113 3.55168 47.1083 4.48663L94.7594 10.5095L150.46 75.972L147.007 103.294L137.978 174.725C137.043 182.122 130.289 187.361 122.892 186.426L25.6653 174.137C18.2683 173.202 13.0297 166.448 13.9647 159.051L32.022 16.1872Z" fill="white" stroke="url(#paint1_linear_0_1)" stroke-width="5"/>
<path d="M2.5 29.4562C2.5 22.0004 8.54416 15.9562 16 15.9562H64.0303L127.5 73.9173V101.456V173.456C127.5 180.912 121.456 186.956 114 186.956H16C8.54416 186.956 2.5 180.912 2.5 173.456V29.4562Z" fill="white" stroke="url(#paint2_linear_0_1)" stroke-width="5"/>
<path d="M93.2412 10.3176L88.1177 50.8536C86.8364 60.9902 94.0152 70.2462 104.152 71.5274L150.285 77.3584L147.007 103.294L137.978 174.725C137.043 182.122 130.289 187.361 122.892 186.426L25.6653 174.137C18.2683 173.202 13.0297 166.448 13.9647 159.051L32.022 16.1872C32.9569 8.7902 39.7113 3.55168 47.1083 4.48663L93.2412 10.3176ZM93.0782 51.4806L97.8044 14.0882L146.998 71.9032L104.779 66.5669C97.3818 65.632 92.1433 58.8776 93.0782 51.4806Z" fill="white" stroke="url(#paint3_linear_0_1)" stroke-width="5"/>
<path d="M62.5 15.9562V56.8147C62.5 67.032 70.7827 75.3147 81 75.3147H127.5V101.456V173.456C127.5 180.912 121.456 186.956 114 186.956H16C8.54416 186.956 2.5 180.912 2.5 173.456V29.4562C2.5 22.0004 8.54416 15.9562 16 15.9562H62.5ZM67.5 56.8147V19.1248L123.555 70.3147H81C73.5442 70.3147 67.5 64.2706 67.5 56.8147Z" fill="white" stroke="url(#paint4_linear_0_1)" stroke-width="5"/>
<path fill-rule="evenodd" clip-rule="evenodd" d="M33 98.4562C33 96.2471 34.7909 94.4562 37 94.4562H93C95.2091 94.4562 97 96.2471 97 98.4562C97 100.665 95.2091 102.456 93 102.456H37C34.7909 102.456 33 100.665 33 98.4562ZM33 112.456C33 110.247 34.7909 108.456 37 108.456H93C95.2091 108.456 97 110.247 97 112.456C97 114.665 95.2091 116.456 93 116.456H37C34.7909 116.456 33 114.665 33 112.456ZM37 122.456C34.7909 122.456 33 124.247 33 126.456C33 128.665 34.7909 130.456 37 130.456H93C95.2091 130.456 97 128.665 97 126.456C97 124.247 95.2091 122.456 93 122.456H37Z" fill="url(#paint5_linear_0_1)"/>
<defs>
<linearGradient id="paint0_linear_0_1" x1="80" y1="199" x2="80" y2="246" gradientUnits="userSpaceOnUse">
<stop stop-color="#FFC800"/>
<stop offset="1" stop-color="#FF6400"/>
</linearGradient>
<linearGradient id="paint1_linear_0_1" x1="96.035" y1="8.15085" x2="73.965" y2="182.762" gradientUnits="userSpaceOnUse">
<stop stop-color="#FFC800"/>
<stop offset="1" stop-color="#FF6400"/>
</linearGradient>
<linearGradient id="paint2_linear_0_1" x1="65" y1="13.4562" x2="65" y2="189.456" gradientUnits="userSpaceOnUse">
<stop stop-color="#FFC800"/>
<stop offset="1" stop-color="#FF6400"/>
</linearGradient>
<linearGradient id="paint3_linear_0_1" x1="96.035" y1="8.15085" x2="73.965" y2="182.762" gradientUnits="userSpaceOnUse">
<stop stop-color="#FFC800"/>
<stop offset="1" stop-color="#FF6400"/>
</linearGradient>
<linearGradient id="paint4_linear_0_1" x1="65" y1="13.4562" x2="65" y2="189.456" gradientUnits="userSpaceOnUse">
<stop stop-color="#FFC800"/>
<stop offset="1" stop-color="#FF6400"/>
</linearGradient>
<linearGradient id="paint5_linear_0_1" x1="65" y1="15.9562" x2="65" y2="190.456" gradientUnits="userSpaceOnUse">
<stop stop-color="#FFC800"/>
<stop offset="1" stop-color="#FF6400"/>
</linearGradient>
</defs>
</svg>
