<svg width="36" height="36" viewBox="0 0 36 36" fill="none" xmlns="http://www.w3.org/2000/svg">
<circle cx="18" cy="18" r="17.5" stroke="url(#paint0_linear_0_1)"/>
<path fill-rule="evenodd" clip-rule="evenodd" d="M21.75 8H15.25C14.6977 8 14.25 8.44772 14.25 9V10.1304H22.75V9C22.75 8.44772 22.3023 8 21.75 8ZM13.25 9V10.1304H10C8.89543 10.1304 8 11.0259 8 12.1304V14.3478V15.3478H9H9.1813L10.9299 29.2496C11.0557 30.2498 11.9062 31 12.9142 31H24.0859C25.0939 31 25.9444 30.2498 26.0702 29.2496L27.8188 15.3478H28H29V14.3478V12.1304C29 11.0259 28.1046 10.1304 27 10.1304H23.75V9C23.75 7.89543 22.8546 7 21.75 7H15.25C14.1454 7 13.25 7.89543 13.25 9ZM10 11.1304H13.25V11.1739H14.25H22.75H23.75V11.1304H27C27.5523 11.1304 28 11.5781 28 12.1304V14.3478H27.9446L27.95 14.3043H26.9422H10.0579H9.05005L9.05552 14.3478H9V12.1304C9 11.5781 9.44772 11.1304 10 11.1304ZM10.1892 15.3478L11.9221 29.1248C11.985 29.6249 12.4102 30 12.9142 30H24.0859C24.5899 30 25.0151 29.6249 25.078 29.1248L26.8109 15.3478H10.1892ZM19 17H18V26H19V17ZM15 17H16V26H15V17ZM22 17H21V26H22V17Z" fill="url(#paint1_linear_0_1)"/>
<defs>
<linearGradient id="paint0_linear_0_1" x1="18" y1="0" x2="18" y2="36" gradientUnits="userSpaceOnUse">
<stop stop-color="#FFC800"/>
<stop offset="1" stop-color="#FF6400"/>
</linearGradient>
<linearGradient id="paint1_linear_0_1" x1="18.5" y1="7" x2="18.5" y2="31" gradientUnits="userSpaceOnUse">
<stop stop-color="#FFC800"/>
<stop offset="1" stop-color="#FF6400"/>
</linearGradient>
</defs>
</svg>
